<?xml version="1.0" encoding="UTF-8"?>
<svg xmlns="http://www.w3.org/2000/svg" viewBox="0 0 600 800">
  <defs>
    <linearGradient id="g1" x1="0" x2="1" y1="0" y2="1">
      <stop offset="0%" stop-color="#7c3aed"/>
      <stop offset="100%" stop-color="#e879f9"/>
    </linearGradient>
    <linearGradient id="g2" x1="0" x2="0" y1="0" y2="1">
      <stop offset="0%" stop-color="#f6f0ff" stop-opacity="0.9"/>
      <stop offset="100%" stop-color="#f3e8ff" stop-opacity="0.6"/>
    </linearGradient>
  </defs>
  <rect width="100%" height="100%" rx="24" fill="url(#g1)" />
  <g transform="translate(60,90)">
    <ellipse cx="240" cy="520" rx="200" ry="40" fill="#5b21b6" opacity="0.12"/>
    <g transform="translate(120,60)">
      <circle cx="160" cy="120" r="80" fill="#fff" opacity="0.06"/>
      <g>
        <path d="M190 50c-12-18-34-30-57-30s-45 12-57 30c-22 33-8 78 44 92v10c0 8 6 14 14 14h14c8 0 14-6 14-14v-10c52-14 66-59 44-92z" fill="#ece7ff"/>
        <circle cx="140" cy="72" r="54" fill="url(#g2)" stroke="#6b21a8" stroke-width="6"/>
        <rect x="86" y="150" width="108" height="140" rx="18" fill="#f3e8ff" stroke="#6b21a8" stroke-width="6"/>
        <g transform="translate(60,220) rotate(-8)">
          <rect x="-20" y="0" width="220" height="28" rx="14" fill="#7c3aed" opacity="0.9"/>
        </g>
      </g>
      <g transform="translate(40,320)">
        <circle cx="40" cy="40" r="8" fill="#fff" opacity="0.6"/>
        <circle cx="120" cy="20" r="5" fill="#fff" opacity="0.4"/>
        <circle cx="200" cy="60" r="6" fill="#fff" opacity="0.3"/>
      </g>
    </g>
  </g>
</svg>
